<svg width="62" height="63" viewBox="0 0 62 63" fill="none" xmlns="http://www.w3.org/2000/svg">
<path fill-rule="evenodd" clip-rule="evenodd" d="M30.99 62.01C24.301 62.0042 17.7936 59.834 12.4403 55.8235C7.08701 51.8129 3.17535 46.1778 1.29004 39.76C-0.595267 33.3422 -0.352922 26.4867 1.98071 20.218C4.31435 13.9493 8.61402 8.60431 14.2371 4.98168C19.8601 1.35904 26.5044 -0.346515 33.1771 0.11986C39.8498 0.586235 46.1924 3.19946 51.2568 7.56908C56.3213 11.9387 59.8356 17.8297 61.2745 24.362C62.7135 30.8944 61.9997 37.7172 59.24 43.8103C59.1224 44.0566 58.913 44.2469 58.6566 44.3406C58.4002 44.4342 58.1173 44.4238 57.8687 44.3113C57.62 44.1987 57.4254 43.9929 57.3265 43.7385C57.2277 43.4841 57.2325 43.2013 57.34 42.9504C59.0481 39.2021 59.9282 35.1292 59.92 31.01C59.921 25.2892 58.2256 19.6969 55.0481 14.9397C51.8706 10.1824 47.3537 6.4741 42.0687 4.28392C36.7838 2.09374 30.968 1.51989 25.3569 2.635C19.7458 3.7501 14.5915 6.50404 10.5455 10.5486C6.4996 14.5931 3.74376 19.7465 2.62671 25.3572C1.50966 30.9679 2.08155 36.7838 4.2699 42.0696C6.45825 47.3553 10.1649 51.8733 14.921 55.0525C19.6772 58.2316 25.2692 59.9294 30.99 59.9304C31.1266 59.9304 31.2618 59.9572 31.3879 60.0095C31.5141 60.0618 31.6288 60.138 31.7253 60.2346C31.8219 60.3312 31.8985 60.4458 31.9508 60.572C32.0031 60.6982 32.03 60.8339 32.03 60.9704C32.03 61.107 32.0031 61.2422 31.9508 61.3684C31.8985 61.4946 31.8219 61.6092 31.7253 61.7058C31.6288 61.8024 31.5141 61.8786 31.3879 61.9309C31.2618 61.9832 31.1266 62.01 30.99 62.01ZM30.99 62.01C30.7142 62.01 30.4497 61.9008 30.2546 61.7058C30.0596 61.5108 29.95 61.2463 29.95 60.9704C29.95 60.6946 30.0596 60.4296 30.2546 60.2346C30.4497 60.0396 30.7142 59.9304 30.99 59.9304C39.77 59.9304 44.6 56.4602 46.2 53.2102C46.6908 52.3038 46.9087 51.2748 46.827 50.2473C46.7454 49.2198 46.3678 48.2377 45.74 47.4202C44.7137 46.0564 43.6119 44.7508 42.4399 43.51C42.3432 43.4114 42.2671 43.2946 42.2159 43.1662C42.1648 43.0379 42.1398 42.9011 42.1423 42.7629C42.1448 42.6248 42.1748 42.4884 42.2306 42.362C42.2863 42.2356 42.3667 42.1216 42.467 42.0266C42.5673 41.9316 42.6856 41.8576 42.8148 41.8088C42.9441 41.76 43.0817 41.7374 43.2197 41.7424C43.3578 41.7474 43.4935 41.7796 43.6189 41.8376C43.7443 41.8957 43.8568 41.9783 43.95 42.0803C45.158 43.3588 46.2931 44.704 47.35 46.1101C48.2363 47.2326 48.7756 48.5897 48.9017 50.0144C49.0279 51.4391 48.7354 52.8694 48.0601 54.1301C46.2001 57.9401 40.73 62.01 30.99 62.01ZM30.99 32.9704C29.6168 32.9695 28.2748 32.5611 27.1334 31.7976C25.9921 31.0341 25.1028 29.9497 24.5778 28.6809C24.0527 27.4121 23.9156 26.0159 24.1837 24.6692C24.4519 23.3224 25.1131 22.0855 26.0841 21.1145C27.0551 20.1435 28.2922 19.4822 29.6389 19.2141C30.9856 18.946 32.3816 19.0831 33.6504 19.6081C34.9192 20.1332 36.0039 21.0225 36.7675 22.1638C37.531 23.3051 37.939 24.6471 37.9399 26.0203C37.9394 27.8633 37.2071 29.6306 35.9038 30.9338C34.6005 32.2371 32.8331 32.9699 30.99 32.9704ZM30.99 21.1501C30.0268 21.1501 29.0853 21.4358 28.2844 21.9709C27.4836 22.5061 26.8593 23.2666 26.4907 24.1565C26.1221 25.0464 26.0257 26.0258 26.2136 26.9704C26.4015 27.9151 26.8653 28.7825 27.5464 29.4636C28.2275 30.1447 29.0952 30.6087 30.0399 30.7966C30.9846 30.9845 31.9638 30.8884 32.8536 30.5198C33.7435 30.1512 34.5042 29.5267 35.0393 28.7258C35.5744 27.9249 35.86 26.9834 35.86 26.0203C35.8589 24.729 35.3456 23.4909 34.4325 22.5779C33.5194 21.6648 32.2813 21.1512 30.99 21.1501ZM30.99 50.4104C30.8394 50.4094 30.6908 50.3756 30.5544 50.3118C30.4181 50.2479 30.2971 50.1553 30.2 50.0403C29.64 49.3703 16.58 33.7002 16.58 26.0203C16.58 22.1985 18.0981 18.5332 20.8005 15.8308C23.5029 13.1284 27.1682 11.6101 30.99 11.6101C34.8118 11.6101 38.477 13.1284 41.1794 15.8308C43.8818 18.5332 45.4 22.1985 45.4 26.0203C45.4 33.7002 32.35 49.3703 31.79 50.0403C31.6909 50.1555 31.5682 50.2479 31.4302 50.3118C31.2922 50.3756 31.142 50.4095 30.99 50.4104ZM30.99 13.6902C27.7208 13.6933 24.5865 14.9933 22.2749 17.3049C19.9633 19.6166 18.6632 22.7511 18.66 26.0203C18.66 31.9403 28.15 44.1804 30.99 47.7204C33.84 44.1804 43.3199 31.9403 43.3199 26.0203C43.3168 22.7511 42.0167 19.6166 39.7051 17.3049C37.3934 14.9933 34.2591 13.6933 30.99 13.6902Z" fill="white"/>
</svg>
