<svg width="53" height="53" viewBox="0 0 53 53" fill="none" xmlns="http://www.w3.org/2000/svg">
<path fill-rule="evenodd" clip-rule="evenodd" d="M26.44 52.346C20.8308 52.3441 15.3729 50.5268 10.8821 47.1659C6.39126 43.805 3.10863 39.081 1.52504 33.7C-0.0585469 28.319 0.141863 22.5699 2.09633 17.3123C4.0508 12.0546 7.65445 7.57061 12.3684 4.53061C17.0824 1.49061 22.6536 0.0578504 28.2493 0.44649C33.845 0.835129 39.1647 3.02429 43.4132 6.68675C47.6617 10.3492 50.6107 15.2883 51.8196 20.7657C53.0285 26.2431 52.4323 31.9646 50.12 37.075C50.0233 37.286 49.847 37.4502 49.6297 37.5317C49.4123 37.6131 49.1716 37.6054 48.96 37.51C48.8558 37.4626 48.762 37.3951 48.684 37.3113C48.6059 37.2275 48.5452 37.1291 48.5053 37.0218C48.4653 36.9145 48.4469 36.8004 48.4512 36.686C48.4554 36.5715 48.4822 36.4591 48.53 36.355C50.6904 31.5852 51.2488 26.2443 50.1218 21.1307C48.9948 16.0172 46.2429 11.4058 42.2776 7.98606C38.3123 4.5663 33.3467 2.52189 28.1231 2.15851C22.8994 1.79513 17.6985 3.1323 13.2979 5.97008C8.89726 8.80786 5.53341 12.9938 3.70924 17.902C1.88508 22.8103 1.69863 28.1771 3.17775 33.2001C4.65687 38.2231 7.72213 42.6324 11.9152 45.7688C16.1082 48.9051 21.2037 50.6 26.44 50.6001C26.6715 50.6001 26.8935 50.692 27.0573 50.8557C27.221 51.0195 27.313 51.2415 27.313 51.4731C27.313 51.7046 27.221 51.9266 27.0573 52.0904C26.8935 52.2541 26.6715 52.346 26.44 52.346ZM26.44 52.346C26.2084 52.346 25.9865 52.2541 25.8228 52.0904C25.659 51.9266 25.567 51.7046 25.567 51.4731C25.567 51.2415 25.659 51.0195 25.8228 50.8557C25.9865 50.692 26.2084 50.6001 26.44 50.6001C33.8 50.6001 37.8501 47.6891 39.1801 44.9641C39.5918 44.2044 39.775 43.3418 39.7075 42.4804C39.6401 41.619 39.325 40.7954 38.8001 40.109C37.9368 38.9689 37.0156 37.8738 36.0401 36.8281C35.9548 36.7467 35.8868 36.6488 35.8405 36.5404C35.7941 36.432 35.7702 36.3154 35.7703 36.1975C35.7703 36.0796 35.7943 35.9629 35.8407 35.8546C35.8872 35.7462 35.9552 35.6484 36.0405 35.5671C36.1259 35.4858 36.2269 35.4227 36.3374 35.3815C36.4479 35.3404 36.5656 35.3222 36.6834 35.3279C36.8011 35.3336 36.9165 35.3631 37.0225 35.4147C37.1285 35.4663 37.2229 35.5389 37.3001 35.6281C38.3109 36.7045 39.2622 37.8351 40.15 39.015C40.8926 39.9557 41.3447 41.0925 41.4513 42.2862C41.5579 43.4798 41.3142 44.6787 40.75 45.736C39.18 48.929 34.6 52.346 26.44 52.346ZM26.44 27.985C25.2872 27.9864 24.16 27.6459 23.2008 27.0064C22.2417 26.367 21.4936 25.4574 21.0515 24.3928C20.6094 23.3282 20.4931 22.1563 20.7172 21.0256C20.9412 19.8948 21.4956 18.8558 22.3102 18.0402C23.1248 17.2246 24.1631 16.6689 25.2936 16.4435C26.4241 16.2181 27.5961 16.3331 28.6613 16.7739C29.7264 17.2148 30.6369 17.9616 31.2775 18.92C31.9181 19.8784 32.26 21.0053 32.26 22.1581C32.2569 23.7013 31.6428 25.1805 30.5523 26.2724C29.4617 27.3643 27.9832 27.98 26.44 27.985ZM26.44 18.077C25.6328 18.0768 24.8438 18.316 24.1725 18.7643C23.5013 19.2126 22.978 19.8499 22.669 20.5956C22.3599 21.3413 22.2789 22.1619 22.4363 22.9536C22.5936 23.7453 22.9823 24.4726 23.553 25.0434C24.1237 25.6142 24.8508 26.003 25.6425 26.1606C26.4341 26.3181 27.2547 26.2374 28.0005 25.9285C28.7463 25.6196 29.3837 25.0966 29.8322 24.4254C30.2806 23.7543 30.52 22.9652 30.52 22.1581C30.519 21.0762 30.0888 20.0389 29.3239 19.2739C28.559 18.5088 27.5218 18.0784 26.44 18.077ZM26.44 42.614C26.3122 42.6145 26.186 42.5868 26.0702 42.5328C25.9544 42.4789 25.8519 42.4001 25.77 42.3021C25.3 41.7441 14.36 28.5951 14.36 22.1581C14.36 18.9542 15.6328 15.8816 17.8982 13.6162C20.1636 11.3508 23.2361 10.0781 26.44 10.0781C29.6438 10.0781 32.7164 11.3508 34.9818 13.6162C37.2473 15.8816 38.52 18.9542 38.52 22.1581C38.52 28.5951 27.57 41.7441 27.1 42.3021C27.0194 42.3991 26.9186 42.4773 26.8046 42.5312C26.6906 42.5851 26.5661 42.6134 26.44 42.614ZM26.44 11.814C23.6982 11.8177 21.07 12.9087 19.1316 14.8477C17.1932 16.7867 16.1029 19.4153 16.1 22.157C16.1 27.118 24.05 37.389 26.44 40.357C28.82 37.386 36.77 27.115 36.77 22.157C36.7692 19.4165 35.681 16.7882 33.7443 14.8493C31.8075 12.9103 29.1805 11.819 26.44 11.8151V11.814Z" fill="#2A3948"/>
</svg>
