<svg width="32" height="33" viewBox="0 0 32 33" fill="none" xmlns="http://www.w3.org/2000/svg">
<path fill-rule="evenodd" clip-rule="evenodd" d="M23.1299 0.538086H8.8999C6.57738 0.542846 4.35138 1.46785 2.70947 3.1105C1.06757 4.75316 0.143592 6.97956 0.139893 9.30209V23.5321C0.143591 25.8547 1.0676 28.0812 2.70947 29.724C4.35135 31.3668 6.57728 32.2921 8.8999 32.2971H23.1299C25.4524 32.2918 27.6783 31.3665 29.3201 29.7237C30.9619 28.081 31.8859 25.8546 31.8899 23.5321V9.30009C31.8857 6.97791 30.9617 4.75202 29.3198 3.1098C27.678 1.46758 25.4521 0.542844 23.1299 0.538086ZM29.0701 23.5311C29.0698 25.107 28.444 26.6185 27.3303 27.7335C26.2166 28.8485 24.7058 29.476 23.1299 29.4781H8.8999C7.32379 29.4765 5.8128 28.8492 4.69897 27.7341C3.58515 26.6189 2.9597 25.1072 2.95996 23.5311V9.30009C2.95996 7.72379 3.58554 6.2119 4.69922 5.09634C5.8129 3.98079 7.3236 3.35275 8.8999 3.3501H23.1299C24.706 3.35222 26.2171 3.97981 27.3308 5.09505C28.4445 6.21028 29.0701 7.72197 29.0701 9.2981V23.5291V23.5311ZM24.54 5.8481C23.9923 5.85046 23.4677 6.06889 23.0801 6.45593C22.6925 6.84297 22.4731 7.36734 22.47 7.91508C22.4754 8.46232 22.6944 8.98581 23.0801 9.37408C23.4682 9.75935 23.9932 9.97511 24.54 9.97409C24.8111 9.97475 25.0796 9.92179 25.3301 9.81825C25.5806 9.71471 25.808 9.56263 25.9995 9.37079C26.191 9.17894 26.3427 8.95112 26.4458 8.70042C26.5489 8.44973 26.6013 8.18114 26.6001 7.9101C26.6014 7.63911 26.5491 7.37054 26.446 7.1199C26.343 6.86926 26.1913 6.64151 25.9998 6.4498C25.8082 6.25809 25.5806 6.1062 25.3301 6.00293C25.0795 5.89965 24.811 5.84704 24.54 5.8481ZM16.01 8.23509C14.3916 8.23628 12.8099 8.71729 11.4648 9.61732C10.1198 10.5174 9.0716 11.796 8.45312 13.2916C7.83465 14.7872 7.67345 16.4326 7.98999 18.0198C8.30653 19.6069 9.08655 21.0646 10.2314 22.2085C11.3763 23.3524 12.8347 24.1312 14.4221 24.4464C16.0096 24.7616 17.6548 24.599 19.1499 23.9793C20.645 23.3595 21.9226 22.3104 22.8215 20.9645C23.7204 19.6187 24.2001 18.0365 24.2 16.4181C24.2 15.3429 23.9881 14.2782 23.5764 13.285C23.1647 12.2917 22.5614 11.3893 21.8008 10.6294C21.0402 9.86941 20.1372 9.2668 19.1436 8.85597C18.1499 8.44515 17.0852 8.23417 16.01 8.23509ZM16.01 21.7821C14.9491 21.7811 13.9122 21.4656 13.0305 20.8754C12.1489 20.2853 11.4622 19.447 11.0569 18.4665C10.6516 17.486 10.546 16.4074 10.7537 15.367C10.9613 14.3266 11.4728 13.3711 12.2234 12.6214C12.974 11.8716 13.9301 11.3612 14.9707 11.1547C16.0113 10.9482 17.0898 11.0549 18.0698 11.4612C19.0498 11.8676 19.8874 12.5554 20.4766 13.4377C21.0657 14.32 21.3801 15.3572 21.3799 16.4181C21.378 17.8412 20.8115 19.2054 19.8047 20.2111C18.7978 21.2168 17.4331 21.7818 16.01 21.7821Z" fill="#2E363E"/>
</svg>
