<svg width="41" height="43" viewBox="0 0 41 43" fill="none" xmlns="http://www.w3.org/2000/svg">
<path fill-rule="evenodd" clip-rule="evenodd" d="M29.68 0.759766H11.3201C8.30362 0.780916 5.41848 1.99684 3.2967 4.14111C1.17492 6.28539 -0.0105874 9.18361 7.12555e-05 12.2002V30.79C-0.0105874 33.8066 1.17492 36.7044 3.2967 38.8486C5.41848 40.9929 8.30362 42.2088 11.3201 42.23H29.68C32.6965 42.2088 35.5817 40.9929 37.7034 38.8486C39.8252 36.7044 41.0107 33.8066 41.0001 30.79V12.2002C41.0107 9.18361 39.8252 6.28539 37.7034 4.14111C35.5817 1.99684 32.6965 0.780916 29.68 0.759766ZM37.3602 30.7798V30.79C37.37 32.8356 36.5679 34.8015 35.13 36.2563C33.692 37.7112 31.7355 38.5358 29.69 38.5498H11.3201C9.27307 38.5379 7.31434 37.7143 5.87434 36.2593C4.43434 34.8043 3.63065 32.8371 3.63996 30.79V12.2002C3.63038 10.1521 4.43359 8.1837 5.87336 6.72705C7.31314 5.2704 9.27208 4.44445 11.3201 4.43018H29.68C31.7281 4.44445 33.687 5.2704 35.1268 6.72705C36.5666 8.1837 37.3698 10.1521 37.3602 12.2002V30.7798ZM31.5101 7.68994C30.7983 7.69496 30.1175 7.98216 29.617 8.48828C29.1165 8.9944 28.8372 9.67835 28.8402 10.3901C28.8438 11.1007 29.1235 11.7819 29.6202 12.29C29.8664 12.5394 30.1593 12.7375 30.4825 12.873C30.8057 13.0086 31.1526 13.0791 31.503 13.0801C31.8534 13.081 32.2006 13.0123 32.5245 12.8784C32.8484 12.7446 33.1424 12.5479 33.39 12.2998C33.8876 11.7883 34.1673 11.1038 34.17 10.3901C34.1731 9.67532 33.8926 8.98829 33.39 8.47998C33.1448 8.22995 32.8524 8.03115 32.5296 7.89551C32.2068 7.75986 31.8602 7.69006 31.5101 7.68994ZM20.5001 10.8101C18.3816 10.7851 16.3033 11.3901 14.5296 12.5488C12.7559 13.7076 11.3667 15.3678 10.5384 17.3179C9.71013 19.2679 9.48034 21.42 9.878 23.501C10.2757 25.582 11.2829 27.4976 12.7718 29.0049C14.2607 30.5121 16.1641 31.5427 18.2401 31.9658C20.316 32.3889 22.4709 32.1857 24.431 31.3813C26.391 30.577 28.0678 29.2081 29.2481 27.4487C30.4285 25.6893 31.0592 23.6187 31.0601 21.5C31.0729 18.6834 29.9685 15.9765 27.9891 13.9727C26.0097 11.9689 23.3166 10.8317 20.5001 10.8101ZM20.5001 28.5C19.1113 28.5149 17.7494 28.1168 16.5875 27.356C15.4256 26.5951 14.5162 25.506 13.9747 24.2271C13.4331 22.9481 13.2838 21.5372 13.546 20.1733C13.8081 18.8095 14.4697 17.5539 15.4468 16.5669C16.424 15.5799 17.6726 14.9057 19.0338 14.6299C20.3949 14.354 21.8073 14.4889 23.0916 15.0176C24.3759 15.5463 25.4742 16.4449 26.2467 17.5991C27.0191 18.7533 27.4309 20.1112 27.43 21.5C27.4375 23.3467 26.7119 25.1207 25.4127 26.4331C24.1134 27.7455 22.3467 28.4889 20.5001 28.5Z" fill="white"/>
</svg>
