<svg width="298" height="41" viewBox="0 0 298 41" fill="none" xmlns="http://www.w3.org/2000/svg">
<path fill-rule="evenodd" clip-rule="evenodd" d="M38.829 40.2469H11.6531C3.88974 40.2469 0.00836662 36.3602 0.00903329 28.5869V13.0419C0.00903329 5.2619 3.89041 1.37689 11.6531 1.38689H38.829V9.15189H11.6531C9.07108 9.15189 7.76709 10.4519 7.76709 13.0419V28.5869C7.76709 31.1749 9.06708 32.4719 11.6531 32.4719H38.829V40.2469ZM82.1921 9.1469H66.6631V40.2469H58.8911V9.1469H43.3611V1.3819H82.1921V9.1469ZM125.536 40.2469H117.774V32.4719H94.4741V40.2469H86.7111V12.3939C86.7111 4.61856 90.594 0.731887 98.36 0.733887H113.885C121.657 0.733887 125.54 4.62056 125.533 12.3939V40.2469H125.536ZM117.774 24.6999V12.3939C117.774 9.81089 116.482 8.50389 113.888 8.50389H98.363C95.779 8.50389 94.4771 9.81089 94.4771 12.3939V24.6999H117.777H117.774ZM168.9 40.2469H161.133V9.1469H149.489C147.589 9.1469 146.282 10.4469 145.603 13.0369L137.971 40.2419H130.071C134.864 24.6966 137.454 15.6282 137.843 13.0369C140.114 5.2569 143.997 1.3719 149.492 1.3819H168.9V40.2419V40.2469ZM212.249 40.2469H202.349L189.926 24.6999H181.185V40.2449H173.422V1.38489H181.185V16.9249H189.926L202.35 1.38489H212.25L196.72 20.8099L212.249 40.2469ZM253.67 9.1469H222.6V16.9219H245.9V24.6999H222.6V32.4699H253.67V40.2449H214.833V1.38489H253.67V9.14989V9.1469ZM297.01 13.0369V16.9219C297.01 24.6969 293.14 28.5819 285.36 28.5819H265.95V40.2419H258.19V1.3819H285.36C293.14 1.3869 297.01 5.2619 297.01 13.0419V13.0369ZM289.25 13.0369C289.25 10.4489 287.96 9.1469 285.36 9.1469H265.95V20.8069H285.36C287.96 20.8069 289.25 19.5199 289.25 16.9219V13.0369Z" fill="#2E363E"/>
</svg>
