<svg width="61" height="61" viewBox="0 0 61 61" fill="none" xmlns="http://www.w3.org/2000/svg">
<path fill-rule="evenodd" clip-rule="evenodd" d="M39.6701 36.5399C39.414 36.5416 39.1669 36.4449 38.98 36.2699L33.19 30.8397C32.995 30.6567 32.8808 30.4038 32.8723 30.1366C32.8639 29.8694 32.962 29.6099 33.145 29.4149C33.328 29.22 33.5809 29.1055 33.8482 29.0971C34.1154 29.0886 34.375 29.187 34.57 29.37L40.36 34.7997C40.5527 34.9853 40.6649 35.2393 40.6724 35.5067C40.6799 35.7741 40.5821 36.0338 40.4 36.2299C40.3063 36.329 40.193 36.408 40.0674 36.4613C39.9418 36.5147 39.8065 36.5413 39.6701 36.5399ZM20.34 36.5399C20.1375 36.5414 19.9394 36.4816 19.7717 36.368C19.6041 36.2545 19.4748 36.0923 19.4011 35.9037C19.3274 35.7151 19.3128 35.509 19.359 35.3119C19.4052 35.1148 19.5102 34.9359 19.6601 34.7997L25.45 29.37C25.6449 29.1883 25.9041 29.0916 26.1704 29.101C26.4367 29.1103 26.6883 29.2249 26.87 29.4198C27.0517 29.6147 27.1484 29.8737 27.1391 30.14C27.1297 30.4063 27.0149 30.6581 26.82 30.8397L21.03 36.2699C20.8431 36.4449 20.5961 36.5416 20.34 36.5399ZM42.87 41.6H17.15C16.2886 41.5984 15.4628 41.2555 14.8537 40.6464C14.2445 40.0372 13.9016 39.2114 13.9 38.35V21.6498C13.9022 20.7894 14.2456 19.9652 14.8549 19.3578C15.4642 18.7503 16.2897 18.4095 17.15 18.41H42.87C43.2955 18.4099 43.717 18.4934 44.1101 18.6561C44.5033 18.8189 44.8605 19.0579 45.1614 19.3588C45.4623 19.6597 45.7009 20.0169 45.8637 20.41C46.0264 20.8032 46.1101 21.2243 46.11 21.6498V38.35C46.1105 39.2104 45.7697 40.0356 45.1623 40.6449C44.5548 41.2542 43.7304 41.5979 42.87 41.6ZM17.15 20.4198C16.9885 20.4197 16.8285 20.4513 16.6792 20.5131C16.5299 20.5748 16.3942 20.6654 16.2799 20.7797C16.1657 20.8939 16.0751 21.0298 16.0133 21.1791C15.9516 21.3284 15.9199 21.4882 15.9201 21.6498V38.35C15.9199 38.5115 15.9516 38.6714 16.0133 38.8207C16.0751 38.97 16.1657 39.1059 16.2799 39.2201C16.3942 39.3343 16.5299 39.4249 16.6792 39.4867C16.8285 39.5485 16.9885 39.5801 17.15 39.58H42.87C43.0316 39.5801 43.1916 39.5485 43.3408 39.4867C43.4901 39.4249 43.6258 39.3343 43.74 39.2201C43.8543 39.1059 43.9448 38.97 44.0066 38.8207C44.0684 38.6714 44.1001 38.5115 44.1 38.35V21.6498C44.1001 21.4882 44.0684 21.3284 44.0066 21.1791C43.9448 21.0298 43.8543 20.8939 43.74 20.7797C43.6258 20.6654 43.4901 20.5748 43.3408 20.5131C43.1916 20.4513 43.0316 20.4197 42.87 20.4198H17.15ZM30.01 32.9501C29.1481 32.9594 28.3124 32.6533 27.6601 32.0897L14.9101 20.9701C14.8109 20.8834 14.7297 20.7781 14.6713 20.66C14.6129 20.542 14.5783 20.4135 14.5695 20.2821C14.5607 20.1507 14.5778 20.0187 14.6199 19.8939C14.662 19.7692 14.7283 19.6542 14.815 19.5551C14.9016 19.4559 15.007 19.3747 15.125 19.3163C15.243 19.2579 15.3714 19.2231 15.5028 19.2142C15.6342 19.2054 15.7661 19.2229 15.8909 19.265C16.0157 19.3072 16.1309 19.3732 16.23 19.4598L28.98 30.58C29.2728 30.8085 29.6336 30.9325 30.005 30.9325C30.3764 30.9325 30.7372 30.8085 31.03 30.58L43.76 19.4701C43.8591 19.3789 43.9755 19.308 44.1023 19.2626C44.2291 19.2171 44.3637 19.1979 44.4982 19.2055C44.6327 19.213 44.7643 19.2472 44.8853 19.3065C45.0062 19.3658 45.114 19.449 45.2023 19.5507C45.2906 19.6524 45.3577 19.7708 45.3994 19.8988C45.4412 20.0269 45.4569 20.1621 45.4455 20.2963C45.434 20.4305 45.3958 20.5609 45.333 20.6801C45.2703 20.7992 45.1842 20.9048 45.08 20.9901L32.35 32.0897C31.7006 32.6515 30.8687 32.9576 30.01 32.9501ZM30.01 60.0097C24.0756 60.0106 18.2741 58.2521 13.3393 54.9559C8.40441 51.6598 4.55783 46.9744 2.28591 41.4921C0.0139871 36.0098 -0.581199 29.9767 0.575581 24.1561C1.73236 18.3355 4.58911 12.9889 8.78469 8.79188C12.9803 4.5949 18.3262 1.73624 24.1464 0.577521C29.9666 -0.581198 35.9997 0.0120175 41.4828 2.28211C46.9659 4.55221 51.6526 8.39719 54.9505 13.3309C58.2483 18.2647 60.009 24.0655 60.01 29.9999C60.0193 34.2704 59.1086 38.4927 57.34 42.3798C57.2861 42.4999 57.2091 42.6082 57.1134 42.6986C57.0177 42.789 56.9052 42.8597 56.7821 42.9066C56.6591 42.9535 56.528 42.9758 56.3964 42.9721C56.2648 42.9683 56.1352 42.9385 56.015 42.8847C55.8949 42.8308 55.7865 42.7543 55.6961 42.6586C55.6057 42.5629 55.535 42.4501 55.4881 42.327C55.4412 42.204 55.419 42.0729 55.4227 41.9413C55.4265 41.8097 55.4562 41.6801 55.51 41.5599C58.0086 36.0536 58.6575 29.8862 57.3598 23.9804C56.062 18.0745 52.8874 12.7478 48.3104 8.79627C43.7335 4.84471 38.0004 2.48091 31.9684 2.05848C25.9364 1.63604 19.9298 3.17747 14.8468 6.45252C9.76381 9.72757 5.87757 14.5601 3.76931 20.2274C1.66104 25.8947 1.44406 32.0921 3.15078 37.893C4.85749 43.6938 8.39619 48.7865 13.2377 52.4091C18.0792 56.0316 23.9633 57.9896 30.01 57.9901C30.2779 57.9901 30.5347 58.0961 30.7241 58.2855C30.9136 58.4749 31.02 58.732 31.02 58.9999C31.02 59.2678 30.9136 59.5248 30.7241 59.7142C30.5347 59.9037 30.2779 60.0097 30.01 60.0097ZM30.01 60.0097C29.7422 60.0097 29.4852 59.9037 29.2958 59.7142C29.1064 59.5248 29 59.2678 29 58.9999C29 58.732 29.1064 58.4749 29.2958 58.2855C29.4852 58.0961 29.7422 57.9901 30.01 57.9901C38.63 57.9901 43.3 54.56 44.78 51.35C45.2437 50.4475 45.4285 49.4272 45.3109 48.4193C45.1934 47.4115 44.7789 46.4615 44.12 45.6898C43.9476 45.4869 43.8629 45.2237 43.8844 44.9584C43.906 44.693 44.0321 44.4472 44.235 44.2748C44.4379 44.1024 44.701 44.0179 44.9663 44.0394C45.2317 44.061 45.4777 44.1871 45.65 44.39C46.5662 45.45 47.1466 46.7582 47.3175 48.1488C47.4885 49.5394 47.2422 50.9497 46.61 52.2001C44.86 55.9701 39.58 60.0097 30.01 60.0097Z" fill="white"/>
</svg>
