<svg width="53" height="53" viewBox="0 0 53 53" fill="none" xmlns="http://www.w3.org/2000/svg">
<path fill-rule="evenodd" clip-rule="evenodd" d="M35.3301 42.0369C31.9701 42.0369 25.71 39.7149 19.17 33.1689C15.7815 29.9108 13.0994 25.9906 11.2901 21.6519C9.94009 18.0839 9.97016 15.2399 11.3602 13.8519C11.5402 13.6719 11.72 13.4769 11.91 13.2769C13.03 12.1009 14.43 10.6359 16.25 10.6359C17.6101 10.6359 18.9 11.4229 20.2 13.0409C23.64 17.3209 22.4001 19.1409 20.2701 21.2359L19.95 21.5539C19.94 21.5629 18.9901 22.6389 24.3401 27.9969C28.3901 32.0469 30.0101 32.4859 30.5101 32.4859C30.5607 32.4929 30.6122 32.4882 30.6607 32.4723C30.7092 32.4563 30.7535 32.4295 30.7901 32.3939L31.1102 32.0679C32.1202 31.0439 33.1601 29.9859 34.7601 29.9859C36.0301 29.9859 37.4701 30.6719 39.3001 32.1419C40.8601 33.3979 41.65 34.6419 41.7 35.9509C41.78 37.8449 40.2701 39.2779 39.0601 40.4279C38.8601 40.6179 38.67 40.7999 38.49 40.9809C37.6176 41.7366 36.4816 42.1163 35.3301 42.0369ZM16.25 12.3779C15.17 12.3779 14.11 13.4929 13.18 14.4779C12.98 14.6899 12.7801 14.8939 12.5901 15.0859C11.9001 15.7789 11.73 17.8859 12.92 21.0379C14.6382 25.1464 17.1845 28.8569 20.4 31.9379C26.18 37.7099 32.0601 40.2939 35.3301 40.2939C36.0159 40.358 36.7007 40.1633 37.25 39.7479C37.4501 39.5579 37.6502 39.3629 37.8602 39.1649C38.8702 38.2089 40.01 37.1269 39.96 36.0209C39.8561 35.5038 39.6473 35.0135 39.3462 34.5804C39.0452 34.1473 38.6585 33.7806 38.21 33.5029C36.73 32.3089 35.6001 31.7319 34.7601 31.7319C33.9201 31.7319 33.3401 32.2949 32.3501 33.2919L32.0201 33.6289C31.8219 33.8256 31.586 33.9802 31.3265 34.0833C31.067 34.1864 30.7892 34.2359 30.5101 34.2289C29.4801 34.2289 27.5902 33.7109 23.1102 29.2289C18.5102 24.6289 17.15 21.8799 18.71 20.3179L19.0401 19.9899C20.7701 18.2899 21.5601 17.5139 18.8401 14.1319C17.9001 12.9669 17.0301 12.3779 16.25 12.3779ZM26 52.3369C20.8582 52.335 15.8323 50.8084 11.5579 47.9503C7.28355 45.0922 3.95272 41.0308 1.98638 36.2798C0.0200323 31.5287 -0.493553 26.3013 0.510792 21.2585C1.51514 16.2156 3.99215 11.5838 7.62871 7.94861C11.2653 4.31345 15.8982 1.83818 20.9415 0.835775C25.9847 -0.166631 31.2119 0.34885 35.9622 2.31702C40.7125 4.28519 44.7725 7.61769 47.629 11.8931C50.4854 16.1686 52.0101 21.195 52.0101 26.3369C52.0185 30.0402 51.2271 33.7017 49.69 37.0709C49.6432 37.1751 49.5764 37.2691 49.4932 37.3473C49.41 37.4256 49.3122 37.4866 49.2054 37.5269C49.0985 37.5673 48.9846 37.5861 48.8704 37.5823C48.7563 37.5785 48.6441 37.5522 48.5401 37.5049C48.3301 37.4087 48.1663 37.2338 48.084 37.0179C48.0017 36.8021 48.0076 36.5626 48.1001 36.3509C49.5343 33.2079 50.2711 29.7917 50.2601 26.3369C50.2603 21.5399 48.838 16.8506 46.1731 12.8618C43.5083 8.87308 39.7206 5.7641 35.2889 3.928C30.8572 2.0919 25.9806 1.61113 21.2757 2.5465C16.5707 3.48187 12.2487 5.79134 8.85625 9.18293C5.46383 12.5745 3.15338 16.8959 2.21685 21.6006C1.28032 26.3053 1.75977 31.182 3.59478 35.6142C5.42978 40.0464 8.53785 43.8349 12.5259 46.5007C16.514 49.1665 21.203 50.5899 26 50.5909C26.2316 50.5909 26.4535 50.6829 26.6172 50.8466C26.781 51.0103 26.8731 51.2324 26.8731 51.4639C26.8731 51.6955 26.781 51.9175 26.6172 52.0812C26.4535 52.2449 26.2316 52.3369 26 52.3369ZM26 52.3369C25.7685 52.3369 25.5466 52.2449 25.3829 52.0812C25.2191 51.9175 25.127 51.6955 25.127 51.4639C25.127 51.2324 25.2191 51.0103 25.3829 50.8466C25.5466 50.6829 25.7685 50.5909 26 50.5909C33.48 50.5909 37.5201 47.6199 38.8101 44.8399C39.2094 44.0563 39.3674 43.1719 39.2642 42.2985C39.161 41.4251 38.801 40.6019 38.23 39.9329C38.0807 39.7552 38.0081 39.5255 38.0281 39.2943C38.0482 39.063 38.1593 38.8492 38.337 38.6999C38.5147 38.5506 38.7444 38.478 38.9756 38.4981C39.2069 38.5181 39.4208 38.6292 39.5701 38.8069C40.3624 39.7263 40.8633 40.8604 41.0093 42.0652C41.1553 43.27 40.9396 44.491 40.3899 45.5729C38.8799 48.8429 34.3 52.3369 26 52.3369Z" fill="#2A3948"/>
</svg>
