<svg width="62" height="61" viewBox="0 0 62 61" fill="none" xmlns="http://www.w3.org/2000/svg">
<path fill-rule="evenodd" clip-rule="evenodd" d="M41.765 48.12C37.885 48.12 30.672 45.44 23.121 37.89C19.209 34.1304 16.1116 29.6067 14.021 24.6C12.469 20.48 12.498 17.1997 14.104 15.5897C14.313 15.3897 14.525 15.1601 14.745 14.9301C16.036 13.5701 17.645 11.8798 19.745 11.8798C21.308 11.8798 22.797 12.79 24.298 14.66C28.27 19.6 26.837 21.7 24.378 24.12L24.008 24.4799C23.996 24.4899 22.898 25.7298 29.08 31.9198C33.753 36.5898 35.615 37.0897 36.198 37.0897C36.2554 37.0987 36.3141 37.0944 36.3696 37.077C36.4251 37.0597 36.4759 37.0302 36.518 36.9901L36.891 36.6097C38.055 35.4297 39.259 34.2098 41.098 34.2098C42.564 34.2098 44.23 35.0001 46.34 36.7001C48.14 38.1501 49.049 39.5797 49.112 41.0897C49.202 43.2797 47.461 44.9296 46.063 46.2597C45.834 46.4797 45.61 46.6898 45.401 46.8998C44.3981 47.7714 43.0907 48.2103 41.765 48.12ZM19.754 13.8998C18.51 13.8998 17.287 15.1797 16.207 16.3197C15.977 16.5597 15.752 16.7999 15.532 17.0199C14.732 17.8199 14.538 20.25 15.908 23.89C17.8932 28.6285 20.8329 32.9071 24.544 36.4598C31.204 43.1198 37.993 46.1 41.765 46.1C42.557 46.1731 43.3482 45.9523 43.988 45.4799C44.208 45.2599 44.444 45.0297 44.688 44.7997C45.849 43.6997 47.165 42.4501 47.111 41.1801C47.075 40.3001 46.395 39.3199 45.091 38.2699C43.38 36.8899 42.078 36.2299 41.109 36.2299C40.158 36.2299 39.47 36.8797 38.336 38.0297L37.953 38.4198C37.7228 38.645 37.45 38.8223 37.1505 38.9408C36.8511 39.0593 36.531 39.1165 36.209 39.1097C35.018 39.1097 32.836 38.5097 27.668 33.3397C22.359 28.0297 20.795 24.8599 22.595 23.0599L22.977 22.6801C24.969 20.7201 25.877 19.8198 22.739 15.9198C21.659 14.5798 20.655 13.8998 19.754 13.8998ZM31.006 60.0097C25.0716 60.0106 19.2701 58.2521 14.3353 54.9559C9.40042 51.6598 5.55385 46.9744 3.28192 41.4921C1.01 36.0098 0.414757 29.9767 1.57154 24.1561C2.72832 18.3355 5.58513 12.9889 9.7807 8.79188C13.9763 4.5949 19.3222 1.73624 25.1424 0.577521C30.9626 -0.581198 36.9958 0.0120175 42.4788 2.28211C47.9619 4.55221 52.6487 8.39719 55.9465 13.3309C59.2443 18.2647 61.005 24.0655 61.006 29.9999C61.0163 34.2702 60.1067 38.4925 58.339 42.3798C58.2283 42.6228 58.0264 42.8127 57.777 42.9081C57.5276 43.0035 57.2506 42.997 57.006 42.89C56.7635 42.7797 56.5748 42.5773 56.481 42.328C56.3873 42.0787 56.3963 41.8027 56.506 41.5599C59.0046 36.0536 59.6535 29.8862 58.3558 23.9804C57.058 18.0745 53.8833 12.7478 49.3064 8.79627C44.7295 4.84471 38.9963 2.48091 32.9644 2.05848C26.9324 1.63604 20.9258 3.17747 15.8428 6.45252C10.7598 9.72757 6.87359 14.5601 4.76532 20.2274C2.65706 25.8947 2.44001 32.0921 4.14673 37.893C5.85345 43.6938 9.39221 48.7865 14.2337 52.4091C19.0752 56.0316 24.9593 57.9896 31.006 57.9901C31.2739 57.9901 31.5307 58.0961 31.7202 58.2855C31.9096 58.4749 32.016 58.732 32.016 58.9999C32.016 59.2678 31.9096 59.5248 31.7202 59.7142C31.5307 59.9037 31.2739 60.0097 31.006 60.0097ZM31.006 60.0097C30.7381 60.0097 30.4812 59.9037 30.2918 59.7142C30.1024 59.5248 29.996 59.2678 29.996 58.9999C29.996 58.732 30.1024 58.4749 30.2918 58.2855C30.4812 58.0961 30.7381 57.9901 31.006 57.9901C39.632 57.9901 44.297 54.56 45.784 51.35C46.2466 50.4468 46.4303 49.4266 46.3117 48.4188C46.1931 47.411 45.7776 46.461 45.118 45.6898C44.9456 45.4861 44.8612 45.2224 44.8833 44.9564C44.9054 44.6905 45.0323 44.4442 45.236 44.2719C45.4397 44.0995 45.7035 44.0149 45.9694 44.037C46.2354 44.0591 46.4816 44.1863 46.654 44.39C47.5703 45.4501 48.1504 46.7585 48.3207 48.1493C48.4909 49.5401 48.2435 50.9503 47.61 52.2001C45.861 55.9701 40.58 60.0097 31.006 60.0097Z" fill="white"/>
</svg>
