<svg width="47" height="33" viewBox="0 0 47 33" fill="none" xmlns="http://www.w3.org/2000/svg">
<path fill-rule="evenodd" clip-rule="evenodd" d="M45.9799 29.57L32.4499 18.9103L46.56 3.22038C46.7191 3.04653 46.8395 2.8407 46.9133 2.61687C46.987 2.39303 47.0126 2.15595 46.988 1.92155C46.9634 1.68716 46.8893 1.46067 46.7707 1.257C46.6521 1.05333 46.4917 0.877478 46.3 0.740402C45.902 0.440791 45.4075 0.298547 44.9111 0.340988C44.4147 0.383429 43.9514 0.607551 43.6101 0.970382L28.3 18.0002C28.2223 18.0815 28.1552 18.1722 28.1 18.2702V2.10027C28.0805 1.6126 27.8684 1.15222 27.5104 0.82048C27.1525 0.488742 26.6776 0.312661 26.1899 0.330246H23.76C23.5159 0.310108 23.2703 0.34053 23.0388 0.420089C22.8072 0.499649 22.5946 0.626299 22.4145 0.79216C22.2344 0.95802 22.0907 1.15972 21.9924 1.38396C21.894 1.60819 21.8432 1.85054 21.8432 2.09538C21.8432 2.34023 21.894 2.58209 21.9924 2.80632C22.0907 3.03055 22.2344 3.23226 22.4145 3.39812C22.5946 3.56398 22.8072 3.69063 23.0388 3.77019C23.2703 3.84975 23.5159 3.88017 23.76 3.86003H24.27V25.7702L3.40985 1.00993C3.06967 0.646427 2.60821 0.420261 2.11249 0.374191C1.61677 0.32812 1.12125 0.465342 0.719912 0.759933C0.532577 0.891933 0.374363 1.06118 0.255312 1.257C0.136262 1.45282 0.0589812 1.67105 0.0280175 1.89812C-0.00294622 2.12518 0.0131074 2.35628 0.0753808 2.57683C0.137654 2.79737 0.244682 3.003 0.389834 3.18034L24.6799 31.9904C25.0092 32.3643 25.4655 32.6026 25.9604 32.6598C26.4553 32.7171 26.9541 32.5888 27.36 32.3C27.5861 32.1448 27.7713 31.9375 27.9001 31.6955C28.0289 31.4535 28.0975 31.1844 28.1 30.9103V19.9704C28.2098 20.1604 28.3559 20.3266 28.53 20.4601L43.4899 32.2502C43.8831 32.5552 44.3749 32.7047 44.8713 32.6696C45.3676 32.6345 45.8335 32.4175 46.1799 32.0602C46.1899 32.0602 46.1899 32.06 46.1899 32.05C46.3521 31.8796 46.4763 31.6771 46.5544 31.4552C46.6325 31.2334 46.6626 30.9972 46.6428 30.7629C46.6229 30.5285 46.5537 30.301 46.4394 30.0954C46.3251 29.8898 46.1685 29.7106 45.9799 29.57Z" fill="white"/>
</svg>
