<svg width="37" height="26" viewBox="0 0 37 26" fill="none" xmlns="http://www.w3.org/2000/svg">
<path fill-rule="evenodd" clip-rule="evenodd" d="M35.73 23.464L25.44 15.093L36.1699 2.77095C36.2904 2.63271 36.3814 2.47136 36.4373 2.29675C36.4932 2.12215 36.5127 1.93797 36.4949 1.75551C36.4771 1.57305 36.4223 1.39613 36.3338 1.23561C36.2452 1.07508 36.1249 0.934336 35.98 0.821959C35.679 0.586649 35.2998 0.474438 34.9192 0.50804C34.5386 0.541642 34.1851 0.718549 33.93 1.00296L22.2801 14.377C22.2244 14.4438 22.1741 14.5151 22.1299 14.5899V1.88995C22.1256 1.70385 22.0847 1.52043 22.0096 1.35014C21.9344 1.17986 21.8263 1.02606 21.6917 0.897536C21.557 0.76901 21.3985 0.668277 21.2249 0.601088C21.0513 0.533899 20.8661 0.501565 20.68 0.50595H18.8301C18.6429 0.497232 18.4556 0.526578 18.2801 0.592223C18.1045 0.657868 17.9442 0.758456 17.8086 0.887877C17.673 1.0173 17.565 1.17287 17.4912 1.3452C17.4175 1.51752 17.3797 1.70302 17.3797 1.89046C17.3797 2.0779 17.4175 2.26339 17.4912 2.43571C17.565 2.60804 17.673 2.76361 17.8086 2.89303C17.9442 3.02246 18.1045 3.12303 18.2801 3.18867C18.4556 3.25432 18.6429 3.28366 18.8301 3.27495H19.22V20.475L3.35013 1.03696C3.0972 0.750325 2.74499 0.570289 2.36453 0.533171C1.98407 0.496053 1.60363 0.604618 1.30008 0.836959C1.15779 0.944462 1.03825 1.07918 0.948515 1.23329C0.85878 1.3874 0.800636 1.55781 0.777372 1.73462C0.754108 1.91143 0.766201 2.09111 0.813017 2.26318C0.859833 2.43526 0.940444 2.5963 1.05008 2.73695L19.5301 25.364C19.7753 25.6564 20.123 25.8444 20.502 25.8895C20.881 25.9347 21.263 25.8336 21.5701 25.6069C21.7419 25.4809 21.8818 25.3167 21.979 25.1271C22.0762 24.9376 22.1278 24.728 22.1299 24.515V15.927C22.2142 16.075 22.3263 16.2054 22.46 16.311L33.8401 25.5659C34.1357 25.8041 34.5104 25.9213 34.8889 25.8941C35.2675 25.8668 35.6216 25.697 35.8799 25.419C35.8899 25.419 35.8899 25.419 35.8899 25.419C36.0133 25.2831 36.1075 25.1233 36.1665 24.9495C36.2256 24.7757 36.2484 24.5917 36.2334 24.4087C36.2184 24.2258 36.166 24.0479 36.0794 23.8861C35.9928 23.7242 35.8739 23.5819 35.73 23.468V23.464Z" fill="#2E363E"/>
</svg>
