<svg width="46" height="46" viewBox="0 0 46 46" fill="none" xmlns="http://www.w3.org/2000/svg">
<path fill-rule="evenodd" clip-rule="evenodd" d="M39.6101 6.39022C37.5865 4.35758 35.18 2.74631 32.5298 1.6495C29.8796 0.552688 27.0381 -0.00804874 24.1699 8.72831e-05C20.4262 0.00175254 16.7459 0.966331 13.4824 2.80087C10.219 4.63541 7.48212 7.27818 5.5349 10.4757C3.58768 13.6732 2.49547 17.3178 2.36327 21.0592C2.23106 24.8006 3.06335 28.513 4.78002 31.8399L1.11009 42.3199C0.981363 42.6793 0.958145 43.0679 1.0432 43.44C1.12825 43.8121 1.31801 44.1523 1.59008 44.42C1.96839 44.7943 2.47785 45.0058 3.01 45.0099C3.23867 45.0098 3.46544 44.9695 3.67992 44.8902L14.1599 41.2301C17.4884 42.9469 21.2027 43.7785 24.9455 43.6451C28.6884 43.5117 32.3341 42.4178 35.532 40.4683C38.7298 38.5189 41.3723 35.7796 43.2056 32.5138C45.0388 29.2479 46.0012 25.5651 46 21.8199C46.008 18.9532 45.4474 16.1135 44.3506 13.4649C43.2537 10.8164 41.6425 8.41193 39.6101 6.39022ZM37.74 35.3902C34.8344 38.2939 31.0742 40.1891 27.0117 40.7975C22.9492 41.4058 18.7986 40.6952 15.1699 38.7701C14.9233 38.6379 14.6518 38.5588 14.3728 38.5382C14.0937 38.5175 13.8134 38.5556 13.55 38.65L4.03002 41.9801L7.36009 32.4503C7.45077 32.1858 7.48598 31.9053 7.46361 31.6266C7.44124 31.3478 7.36166 31.0768 7.22997 30.8302C5.67752 27.9066 4.90773 24.6314 4.99535 21.3224C5.08297 18.0133 6.02498 14.7832 7.72997 11.9459C9.43496 9.1086 11.8449 6.76056 14.7256 5.12997C17.6063 3.49938 20.8597 2.64171 24.1699 2.64022C27.9647 2.63909 31.6748 3.76354 34.8306 5.87118C37.9863 7.97882 40.446 10.9748 41.8987 14.4806C43.3513 17.9864 43.7314 21.8441 42.9912 25.566C42.251 29.2879 40.4235 32.707 37.74 35.3902ZM32.29 23.7799C32.0506 23.5397 31.766 23.3493 31.4529 23.2193C31.1397 23.0893 30.8042 23.0225 30.4651 23.0225C30.126 23.0225 29.7902 23.0893 29.477 23.2193C29.1639 23.3493 28.8793 23.5397 28.6399 23.7799L27.55 24.8702C24.8307 23.4008 22.5992 21.1697 21.1299 18.4503L22.22 17.3502C22.46 17.1118 22.6505 16.8281 22.7805 16.5157C22.9105 16.2034 22.9775 15.8682 22.9775 15.5299C22.9775 15.1915 22.9105 14.8569 22.7805 14.5445C22.6505 14.2322 22.46 13.9485 22.22 13.71L19.27 10.7501C18.7835 10.2707 18.128 10.002 17.4451 10.002C16.7621 10.002 16.1066 10.2707 15.6201 10.7501L13.26 13.1202C11.9 14.4802 11.8301 16.81 13.0701 19.69C15.8792 25.4594 20.5407 30.1212 26.31 32.9303C27.4684 33.4687 28.7233 33.7679 30 33.8101C30.5276 33.8369 31.0551 33.7558 31.5503 33.5719C32.0455 33.3879 32.4978 33.1051 32.8799 32.7403L35.24 30.38C35.4804 30.1417 35.6713 29.8583 35.8017 29.546C35.9322 29.2336 35.9996 28.8986 36 28.5601C36.0015 28.2214 35.935 27.8855 35.8044 27.5728C35.6739 27.2602 35.482 26.9774 35.24 26.7403L32.29 23.7799ZM31.01 30.88C30.62 31.27 29.4301 31.3999 27.3501 30.5099C22.2092 27.9556 18.0442 23.7909 15.49 18.65C14.6 16.56 14.7401 15.3703 15.1201 14.9903L17.4399 12.67L20.31 15.5299L18.9399 16.9102C18.6378 17.2105 18.4391 17.5989 18.3725 18.0196C18.306 18.4403 18.3753 18.8713 18.5701 19.2501C20.353 22.7796 23.2149 25.6485 26.74 27.44C27.122 27.6313 27.5546 27.6977 27.9763 27.6295C28.3981 27.5613 28.7878 27.362 29.0901 27.0601L30.4599 25.69L33.3301 28.5601L31.01 30.88Z" fill="white"/>
</svg>
