<svg width="39" height="39" viewBox="0 0 39 39" fill="none" xmlns="http://www.w3.org/2000/svg">
<path fill-rule="evenodd" clip-rule="evenodd" d="M33.6002 6.11393C31.8935 4.39664 29.8629 3.03508 27.6263 2.10815C25.3896 1.18121 22.9913 0.707327 20.5701 0.713935C15.6821 0.715261 10.9945 2.65782 7.53839 6.11448C4.0823 9.57114 2.14049 14.2589 2.13996 19.1469C2.1422 22.0881 2.84497 24.9864 4.19001 27.6019L1.09015 36.4539C0.982644 36.7575 0.964048 37.0855 1.03669 37.3993C1.10932 37.713 1.27008 37.9995 1.50006 38.2249C1.65643 38.3844 1.84325 38.5108 2.04938 38.5966C2.25551 38.6825 2.47671 38.7262 2.70002 38.7249C2.89433 38.7244 3.0872 38.6906 3.27008 38.6249L12.1202 35.5249C16.0269 37.5343 20.5227 38.0822 24.7977 37.0701C29.0727 36.058 32.8455 33.5523 35.4366 30.0046C38.0276 26.4569 39.2665 22.1004 38.9298 17.7201C38.593 13.3399 36.703 9.22394 33.6002 6.11393ZM32.0301 30.6069C30.5286 32.1165 28.7426 33.3132 26.7755 34.1279C24.8083 34.9425 22.6993 35.3589 20.5701 35.3529C17.9169 35.3519 15.3042 34.7017 12.96 33.4589C12.7513 33.3477 12.522 33.2809 12.2862 33.2626C12.0504 33.2444 11.8135 33.2751 11.5902 33.3529L3.55011 36.1669L6.37018 28.1249C6.44921 27.9017 6.4802 27.6643 6.46125 27.4282C6.44229 27.1921 6.37371 26.9627 6.26007 26.7549C4.9462 24.2858 4.29409 21.5186 4.36701 18.7226C4.43993 15.9266 5.2353 13.1971 6.67609 10.7998C8.11688 8.40252 10.1539 6.41909 12.5887 5.04259C15.0235 3.6661 17.7732 2.94344 20.5701 2.94494C23.7743 2.94643 26.9061 3.89761 29.5699 5.67829C32.2337 7.45898 34.3101 9.98926 35.5364 12.9495C36.7628 15.9097 37.0841 19.1669 36.46 22.3097C35.8359 25.4526 34.2944 28.3399 32.0301 30.6069ZM27.42 20.7959C27.0114 20.3878 26.4575 20.1585 25.8799 20.1585C25.3024 20.1585 24.7487 20.3878 24.3402 20.7959L23.42 21.7219C21.1243 20.4804 19.2408 18.5961 18.0001 16.2999L18.92 15.3729C19.1221 15.1711 19.2825 14.9314 19.3919 14.6676C19.5013 14.4038 19.5574 14.121 19.5574 13.8354C19.5574 13.5498 19.5013 13.2671 19.3919 13.0032C19.2825 12.7394 19.1221 12.4998 18.92 12.2979L16.42 9.79793C16.2185 9.59626 15.9793 9.43626 15.7159 9.32711C15.4525 9.21795 15.1702 9.16178 14.8851 9.16178C14.6 9.16178 14.3176 9.21795 14.0543 9.32711C13.7909 9.43626 13.5517 9.59626 13.3502 9.79793L11.3502 11.7979C10.2002 12.9429 10.15 14.9119 11.19 17.3419C13.5693 22.2139 17.5076 26.1515 22.3799 28.5299C23.3562 28.9837 24.4141 29.2361 25.4901 29.2719C25.9348 29.293 26.3792 29.2241 26.7967 29.0695C27.2142 28.9148 27.5962 28.6776 27.92 28.3719L29.92 26.3719C30.1228 26.1704 30.2838 25.9308 30.3936 25.6668C30.5035 25.4029 30.5601 25.1198 30.5601 24.8339C30.5601 24.548 30.5035 24.265 30.3936 24.001C30.2838 23.7371 30.1228 23.4974 29.92 23.2959L27.42 20.7959ZM26.3402 26.7959C26.0202 27.1229 25.0101 27.2369 23.2501 26.4839C18.9061 24.3317 15.3892 20.8124 13.2401 16.4669C12.4801 14.7079 12.6 13.7039 12.93 13.3769L14.89 11.4159L17.3101 13.8379L16.15 14.9999C15.8939 15.254 15.725 15.5828 15.6675 15.9389C15.6101 16.295 15.6671 16.6602 15.8301 16.9819C17.3441 19.9578 19.7635 22.3763 22.7401 23.8889C23.0609 24.0531 23.4257 24.111 23.7816 24.0544C24.1374 23.9978 24.466 23.8295 24.72 23.5739L25.8799 22.4129L28.3001 24.8359L26.3402 26.7959Z" fill="#2E363E"/>
</svg>
